<svg width="290" height="96" viewBox="0 0 290 96" fill="none" xmlns="http://www.w3.org/2000/svg">
<path d="M27.392 25.392V58.352C27.392 62.0213 26.2613 64.9653 24 67.184C21.7387 69.36 18.752 70.448 15.04 70.448C11.2853 70.448 8.27733 69.3387 6.016 67.12C3.75467 64.8587 2.624 61.7867 2.624 57.904H8.448C8.49067 60.08 9.04533 61.8507 10.112 63.216C11.2213 64.5813 12.864 65.264 15.04 65.264C17.216 65.264 18.8373 64.624 19.904 63.344C20.9707 62.0213 21.504 60.3573 21.504 58.352V25.392H27.392Z" fill="black"/>
<path d="M59.152 70.448C55.0133 70.448 51.2373 69.488 47.824 67.568C44.4107 65.6053 41.7013 62.896 39.696 59.44C37.7333 55.9413 36.752 52.016 36.752 47.664C36.752 43.312 37.7333 39.408 39.696 35.952C41.7013 32.4533 44.4107 29.744 47.824 27.824C51.2373 25.8613 55.0133 24.88 59.152 24.88C63.3333 24.88 67.1307 25.8613 70.544 27.824C73.9573 29.744 76.6453 32.432 78.608 35.888C80.5707 39.344 81.552 43.2693 81.552 47.664C81.552 52.0587 80.5707 55.984 78.608 59.44C76.6453 62.896 73.9573 65.6053 70.544 67.568C67.1307 69.488 63.3333 70.448 59.152 70.448ZM59.152 65.392C62.2667 65.392 65.0613 64.6667 67.536 63.216C70.0533 61.7653 72.016 59.696 73.424 57.008C74.8747 54.32 75.6 51.2053 75.6 47.664C75.6 44.08 74.8747 40.9653 73.424 38.32C72.016 35.632 70.0747 33.5627 67.6 32.112C65.1253 30.6613 62.3093 29.936 59.152 29.936C55.9947 29.936 53.1787 30.6613 50.704 32.112C48.2293 33.5627 46.2667 35.632 44.816 38.32C43.408 40.9653 42.704 44.08 42.704 47.664C42.704 51.2053 43.408 54.32 44.816 57.008C46.2667 59.696 48.2293 61.7653 50.704 63.216C53.2213 64.6667 56.0373 65.392 59.152 65.392Z" fill="black"/>
<path d="M95.752 25.392V70H89.928V25.392H95.752Z" fill="black"/>
<path d="M216.264 47.024C217.885 47.28 219.357 47.9413 220.68 49.008C222.045 50.0747 223.112 51.3973 223.88 52.976C224.691 54.5547 225.096 56.24 225.096 58.032C225.096 60.2933 224.52 62.3413 223.368 64.176C222.216 65.968 220.531 67.3973 218.312 68.464C216.136 69.488 213.555 70 210.568 70H193.928V25.392H209.928C212.957 25.392 215.539 25.904 217.672 26.928C219.805 27.9093 221.405 29.2533 222.472 30.96C223.539 32.6667 224.072 34.5867 224.072 36.72C224.072 39.3653 223.347 41.5627 221.896 43.312C220.488 45.0187 218.611 46.256 216.264 47.024ZM199.752 44.656H209.544C212.275 44.656 214.387 44.016 215.88 42.736C217.373 41.456 218.12 39.6853 218.12 37.424C218.12 35.1627 217.373 33.392 215.88 32.112C214.387 30.832 212.232 30.192 209.416 30.192H199.752V44.656ZM210.056 65.2C212.957 65.2 215.219 64.5173 216.84 63.152C218.461 61.7867 219.272 59.888 219.272 57.456C219.272 54.9813 218.419 53.04 216.712 51.632C215.005 50.1813 212.723 49.456 209.864 49.456H199.752V65.2H210.056Z" fill="black"/>
<path d="M239.752 65.264H255.368V70H233.928V25.392H239.752V65.264Z" fill="black"/>
<path d="M267.752 30.128V45.04H284.008V49.84H267.752V65.2H285.928V70H261.928V25.328H285.928V30.128H267.752Z" fill="black"/>
<path d="M176.296 60.08H156.84L153.256 70H147.112L163.24 25.648H169.96L186.024 70H179.88L176.296 60.08ZM174.632 55.344L166.568 32.816L158.504 55.344H174.632Z" fill="black"/>
<path d="M135.376 70.608V42.384C135.376 38.416 134.416 35.472 132.496 33.552C130.533 31.632 127.824 30.672 124.368 30.672C120.955 30.672 118.288 31.632 116.368 33.552C114.405 35.472 113.424 38.416 113.424 42.384V70.608H107.6V42.448C107.6 38.736 108.347 35.6 109.84 33.04C111.333 30.5227 113.36 28.6453 115.92 27.408C118.437 26.1707 121.275 25.552 124.432 25.552C127.589 25.552 130.448 26.1707 133.008 27.408C135.525 28.6453 137.531 30.5227 139.024 33.04C140.475 35.6 141.2 38.736 141.2 42.448V70.608H135.376Z" fill="black"/>
<rect x="132" y="60" width="12" height="11" fill="white"/>
<rect x="135" y="63" width="6" height="6" rx="3" fill="#2B80FF"/>
<rect x="276" y="41" width="10" height="13" fill="white"/>
<path d="M278.5 47.5C278.5 45.567 280.067 44 282 44V44C283.933 44 285.5 45.567 285.5 47.5V47.5C285.5 49.433 283.933 51 282 51V51C280.067 51 278.5 49.433 278.5 47.5V47.5Z" fill="#2B80FF"/>
</svg>
